#!OML:ASF X:\für Bonn\!DataBase\2005_08_12_Daniel\c3d\Daniel.ASF
:FULLY-SPECIFIED
:DEGREES
1
root 18.1737 16.1268 18.359 888.674 -39.5358 -180.134
lowerback 40.433 -1.64026 4.03994
upperback 9.26546 -3.06945 -2.03791
thorax -9.38533 -2.41325 -2.8403
lowerneck -2.93909 3.22698 0.242139
upperneck -1.94557 4.22301 -4.03692
head -0.0132332 2.08394 -1.2383
rclavicle 6.36111e-015 -2.14687e-014
rhumerus -36.2978 -1.09302 -87.4122
rradius 56.5846
rwrist 10.2355
rhand -30.708 12.5116
rfingers 7.12502
rthumb -4.00115 -17.4306
lclavicle 6.36111e-015 -2.14687e-014
lhumerus -28.2436 19.6054 79.4916
lradius 61.1496
lwrist -20.6382
lhand -26.1327 0.0286807
lfingers 7.12502
lthumb 0.417548 30.008
rfemur -13.4062 5.30658 25.2762
rtibia 55.7626
rfoot -29.1909 5.09997
rtoes -5.20631
lfemur -27.1781 4.55594 -19.05
ltibia 79.1776
lfoot -19.3189 -9.8646
ltoes -7.94639
2
root 18.106 16.1314 18.2759 888.508 -39.7373 -180.257
lowerback 40.4978 -1.5311 3.91813
upperback 9.27982 -2.98915 -2.07916
thorax -9.38407 -2.37581 -2.85358
lowerneck -2.9008 3.1614 0.271949
upperneck -1.76319 4.14372 -4.02394
head 0.0349641 2.04363 -1.23897
rclavicle 3.77691e-015 1.27222e-014
rhumerus -36.2988 -1.02064 -87.3764
rradius 56.924
rwrist 10.1535
rhand -30.7108 12.3334
rfingers 7.12502
rthumb -4.00386 -17.6087
lclavicle 3.77691e-015 1.27222e-014
lhumerus -28.2972 19.5516 79.4302
lradius 61.3172
lwrist -20.3927
lhand -26.0929 0.0869524
lfingers 7.12502
lthumb 0.456041 30.0662
rfemur -12.5867 5.24106 25.2426
rtibia 55.6045
rfoot -29.4482 4.93567
rtoes -5.21765
lfemur -27.8378 4.2582 -19.3012
ltibia 78.0465
lfoot -19.5099 -9.67533
ltoes -8.95319
3
root 18.0372 16.137 18.1923 888.349 -39.9378 -180.367
lowerback 40.5422 -1.41827 3.81484
upperback 9.29025 -2.89309 -2.10427
thorax -9.37892 -2.33059 -2.86652
lowerneck -2.8857 3.08249 0.222125
upperneck -1.55383 4.04954 -3.98481
head 0.0925613 1.99557 -1.21762
rclavicle -8.34896e-015 1.43125e-014
rhumerus -36.2844 -1.09044 -87.285
rradius 57.193
rwrist 10.1867
rhand -30.6991 12.2321
rfingers 7.12502
rthumb -3.99259 -17.7102
lclavicle -8.34896e-015 1.43125e-014
lhumerus -28.3593 19.4976 79.4212
lradius 61.4757
lwrist -20.1872
lhand -26.1264 0.124763
lfingers 7.12502
lthumb 0.423678 30.1041
rfemur -11.7634 5.17673 25.2141
rtibia 55.4121
rfoot -29.6687 4.80731
rtoes -5.19553
lfemur -28.4493 3.97386 -19.5341
ltibia 76.8229
lfoot -19.6606 -9.47233
ltoes -9.4848
4
root 17.9678 16.1454 18.1086 888.245 -40.1513 -180.493
lowerback 40.5443 -1.31066 3.71092
upperback 9.28407 -2.79938 -2.1433
thorax -9.38058 -2.28359 -2.89423
lowerneck -2.83318 3.0019 0.184623
upperneck -1.33446 3.95326 -3.92844
head 0.14693 1.94695 -1.19365
rclavicle -7.15625e-015 5.96354e-015
rhumerus -36.2705 -1.1834 -87.2077
rradius 57.4245
rwrist 10.2141
rhand -30.7149 12.1915
rfingers 7.12502
rthumb -4.00782 -17.7506
lclavicle -7.15625e-015 5.96354e-015
lhumerus -28.4172 19.4088 79.3758
lradius 61.6023
lwrist -19.9522
lhand -26.1529 0.152926
lfingers 7.12502
lthumb 0.398106 30.1323
rfemur -10.9674 5.07914 25.1607
rtibia 55.188
rfoot -29.8724 4.68434
rtoes -5.3745
lfemur -29.0548 3.66028 -19.7854
ltibia 75.5206
lfoot -19.7427 -9.16811
ltoes -9.54134
5
root 17.8969 16.1553 18.0257 888.151 -40.3661 -180.598
lowerback 40.5106 -1.20994 3.594
upperback 9.28424 -2.71805 -2.16658
thorax -9.36347 -2.24202 -2.89428
lowerneck -2.77207 2.93782 0.191336
upperneck -1.13652 3.87593 -3.9417
head 0.196346 1.90732 -1.19913
rclavicle -3.79679e-014 7.95139e-016
rhumerus -36.2259 -1.15679 -87.1322
rradius 57.6782
rwrist 10.1565
rhand -30.7514 12.0542
rfingers 7.12502
rthumb -4.04312 -17.8872
lclavicle -3.79679e-014 7.95139e-016
lhumerus -28.4702 19.3918 79.3378
lradius 61.7341
lwrist -19.7632
lhand -26.1708 0.133004
lfingers 7.12502
lthumb 0.380748 30.1124
rfemur -10.2014 5.00248 25.1184
rtibia 54.9479
rfoot -30.0204 4.56811
rtoes -5.35063
lfemur -29.6168 3.34248 -20.0225
ltibia 74.1275
lfoot -19.8218 -8.78419
ltoes -9.70162
